<svg width="24" height="24" fill="#A5A8B6" xmlns="http://www.w3.org/2000/svg" viewBox="0 0 489.4 489.4"><path d="M347.7 263.8h-66.5a33 33 0 0 0-33 33v51a33 33 0 0 0 33 33h66.5a33 33 0 0 0 33-33v-51a33 33 0 0 0-33-33zm9 84c0 5-4.1 9-9 9h-66.5a9 9 0 0 1-9-9v-51c0-5 4.1-9 9-9h66.5c5 0 9 4 9 9v51z"/><path d="M489.4 171c0-2-.5-4-1.6-5.8L415 37.2a12 12 0 0 0-10.4-6.1H84.7c-4.3 0-8.3 2.3-10.4 6l-72.7 128c-1 1.9-1.6 3.9-1.6 6a70.2 70.2 0 0 0 42 64.2v211a12 12 0 0 0 12 12h381.3a12 12 0 0 0 12-12V236.9l-.1-1.3a70.4 70.4 0 0 0 42.2-64.4zM91.7 55.3h305.9l56.9 100H34.9l56.8-100zm256.6 124a46.1 46.1 0 0 1-90.8 0h90.8zm-116.3 0a46.1 46.1 0 0 1-90.9 0H232zm-207.2 0h90.9a46.2 46.2 0 0 1-90.9 0zm176.8 255.2h-69V304.9a17 17 0 0 1 17.1-17.1h34.9a17 17 0 0 1 17.1 17v129.6h-.1zm221.7 0H225.6V304.9a41.2 41.2 0 0 0-41.1-41.1h-34.9a41.2 41.2 0 0 0-41.1 41v129.7H66V241.2h4.2a70.1 70.1 0 0 0 58.2-31 70.1 70.1 0 0 0 116.4 0 70 70 0 0 0 116.2 0c12.6 18.8 34 31 58.2 31h4.1v193.2zm-4.1-217.1a46.1 46.1 0 0 1-45.4-38h90.9a46.4 46.4 0 0 1-45.5 38z"/></svg>